<?xml version="1.0" encoding="utf-8"?>
<!-- Generator: Adobe Illustrator 16.0.0, SVG Export Plug-In . SVG Version: 6.00 Build 0)  -->
<!DOCTYPE svg PUBLIC "-//W3C//DTD SVG 1.1//EN" "http://www.w3.org/Graphics/SVG/1.1/DTD/svg11.dtd">
<svg version="1.1" id="Layer_1" xmlns="http://www.w3.org/2000/svg" xmlns:xlink="http://www.w3.org/1999/xlink" x="0px" y="0px"
	 width="1400px" height="3240px" viewBox="0 0 1400 3240" enable-background="new 0 0 1400 3240" xml:space="preserve">
<rect fill="#020202" width="1400" height="133"/>
<rect y="132" opacity="0.05" fill="#020202" width="1400" height="3124"/>
<g>
	<text transform="matrix(1 0 0 1 903.7979 76.5283)"><tspan x="0" y="0" fill="#B2B2B2" font-family="'FontAwesome'" font-size="18" letter-spacing="1"></tspan><tspan x="18.514" y="0" fill="#FFFFFF" font-family="'Raleway'" font-size="18" letter-spacing="1">  twitter</tspan></text>
</g>
<polygon fill="#666666" points="196.996,61.745 193.316,61.745 193.316,57.11 188.854,57.11 188.854,53.363 184.933,53.363 
	184.933,48.729 180.472,48.729 180.472,44.737 176.304,44.737 176.304,40.099 171.844,40.099 171.844,36.353 167.674,36.353 
	167.674,31.717 163.343,31.717 163.343,27.85 154.594,27.85 154.594,31.717 150.046,31.717 150.046,36.353 146.089,36.353 
	146.089,40.099 141.543,40.099 141.543,44.737 137.461,44.737 137.461,48.729 132.789,48.729 132.789,53.363 128.835,53.363 
	128.835,57.11 124.407,57.11 124.407,61.745 120.209,61.745 120.209,78.999 124.776,78.999 124.776,83.491 129.202,83.491 
	129.202,87.44 137.826,87.44 137.949,87.44 146.575,87.44 146.575,83.491 150.909,83.491 150.909,78.999 154.229,78.999 
	154.229,90.965 146.089,90.965 146.089,99.713 171.844,99.713 171.844,90.965 162.979,90.965 162.979,78.999 165.949,78.999 
	165.949,83.491 170.446,83.491 170.446,87.44 188.674,87.44 188.674,83.491 193.068,83.491 193.068,78.999 196.996,78.999 "/>
<text transform="matrix(1 0 0 1 227.6519 83.4292)" fill="#FFFFFF" font-family="'OstrichSans-Bold'" font-size="51.309" letter-spacing="5">jack tarantino</text>
<rect x="138.998" y="223" fill="none" width="178" height="51"/>
<text transform="matrix(1 0 0 1 216.3442 234.6797)" fill="#231F20" font-family="'Raleway-SemiBold'" font-size="16">April 30, 2014</text>
<rect x="383" y="291.997" fill="none" width="785" height="1516"/>
<text transform="matrix(1 0 0 1 383 302.2173)"><tspan x="0" y="0" fill="#020202" font-family="'Raleway-Regular'" font-size="14" letter-spacing="1">I am paragraph text. I am light, readable, and easy on the eyes. Consectetur adipiscing elit. Aliquam </tspan><tspan x="0" y="27" fill="#020202" font-family="'Raleway-Regular'" font-size="14" letter-spacing="1">ornare metus tortor, sed dapibus libero euismod id. Aliquam erat volutpat. Sed eu nulla et arcu pellen</tspan><tspan x="766.684" y="27" fill="#020202" font-family="'Raleway-Regular'" font-size="14" letter-spacing="1">-</tspan><tspan x="0" y="54" fill="#020202" font-family="'Raleway-Regular'" font-size="14" letter-spacing="1">tesque volutpat. Nunc nec enim nec tortor egestas consequat. In et elit volutpat, placerat ligula at, </tspan><tspan x="0" y="81" fill="#020202" font-family="'Raleway-Regular'" font-size="14" letter-spacing="1">dignissim augue. Aenean hendrerit magna odio, quis placerat lectus pharetra et. Proin ut nisi elemen</tspan><tspan x="757.401" y="81" fill="#020202" font-family="'Raleway-Regular'" font-size="14" letter-spacing="1">-</tspan><tspan x="0" y="108" fill="#020202" font-family="'Raleway-Regular'" font-size="14" letter-spacing="1">tum, rutrum mauris vitae, placerat tellus.  </tspan><tspan x="315.485" y="108" fill="#FF5555" font-family="'Raleway-Regular'" font-size="14" letter-spacing="1">I’m a link; but I’m a link on hover.</tspan><tspan x="0" y="756" fill="#020202" font-family="'Raleway-Regular'" font-size="14" letter-spacing="1">Aliquam libero eros, eleifend a lacus non, iaculis vestibulum odio. Fusce porttitor scelerisque enim, non </tspan><tspan x="0" y="783" fill="#020202" font-family="'Raleway-Regular'" font-size="14" letter-spacing="1">lobortis diam. Morbi faucibus, libero eget varius aliquet, urna lacus eleifend lacus, in ultrices massa erat </tspan><tspan x="0" y="810" fill="#020202" font-family="'Raleway-Regular'" font-size="14" letter-spacing="1">sed augue. Vivamus aliquam ac lorem quis tempor. Duis suscipit dolor eu libero varius scelerisque. </tspan><tspan x="0" y="837" fill="#020202" font-family="'Raleway-Regular'" font-size="14" letter-spacing="1">Curabitur odio libero, vehicula ac placerat nec, fringilla eget dolor. Maecenas faucibus erat ac malesua</tspan><tspan x="776.121" y="837" fill="#020202" font-family="'Raleway-Regular'" font-size="14" letter-spacing="1">-</tspan><tspan x="0" y="864" fill="#020202" font-family="'Raleway-Regular'" font-size="14" letter-spacing="1">da aliquet. Praesent lobortis nunc eu auctor pharetra.</tspan><tspan x="70" y="918" fill="#020202" font-family="'Raleway-Regular'" font-size="14" letter-spacing="1">Nullam magna sem, sodales ac est nec, pharetra feugiat elit. Fusce quis dictum dui, nec frin</tspan><tspan x="762.891" y="918" fill="#020202" font-family="'Raleway-Regular'" font-size="14" letter-spacing="1">-</tspan><tspan x="70" y="945" fill="#020202" font-family="'Raleway-Regular'" font-size="14" letter-spacing="1">gilla nulla. Cras adipiscing ultrices ligula, a sodales justo scelerisque sit amet. Fusce tempor </tspan><tspan x="70" y="972" fill="#020202" font-family="'Raleway-Regular'" font-size="14" letter-spacing="1">magna mauris, id scelerisque orci sagittis in. Proin volutpat urna metus, et pharetra nunc </tspan><tspan x="70" y="999" fill="#020202" font-family="'Raleway-Regular'" font-size="14" letter-spacing="1">congue a. Nunc in interdum orci, vitae convallis arcu. Sed orci metus, molestie ut risus et, </tspan><tspan x="70" y="1026" fill="#020202" font-family="'Raleway-Regular'" font-size="14" letter-spacing="1">dignissim tincidunt odio.</tspan><tspan x="0" y="1080" fill="#020202" font-family="'Raleway-Regular'" font-size="14" letter-spacing="1">I am an unordered list</tspan><tspan x="10" y="1112" fill="#020202" font-family="'Raleway-Regular'" font-size="14" letter-spacing="1">•   I’m pretty even when I take up more than one line. Praesent egestas rutrum tellus, a porta eros lac</tspan><tspan x="772.251" y="1112" fill="#020202" font-family="'Raleway-Regular'" font-size="14" letter-spacing="1">-</tspan><tspan x="30" y="1139" fill="#020202" font-family="'Raleway-Regular'" font-size="14" letter-spacing="1">inia nec. Donec in purus in neque imperdiet pretium. Vivamus porttitor ipsum et orci tincidunt, vitae </tspan><tspan x="30" y="1166" fill="#020202" font-family="'Raleway-Regular'" font-size="14" letter-spacing="1">volutpat est convallis. </tspan><tspan x="10" y="1198" fill="#020202" font-family="'Raleway-Regular'" font-size="14" letter-spacing="1">•   I’m also pretty on one line.</tspan><tspan x="10" y="1230" fill="#020202" font-family="'Raleway-Regular'" font-size="14" letter-spacing="1">•   I have many important things to say.</tspan><tspan x="0" y="1289" fill="#020202" font-family="'Raleway-Regular'" font-size="14" letter-spacing="1">Pellentesque consequat tincidunt facilisis. Cras porttitor enim sit amet magna consectetur laoreet. </tspan><tspan x="0" y="1316" fill="#020202" font-family="'Raleway-Regular'" font-size="14" letter-spacing="1">Curabitur tristique tincidunt vulputate. Donec pulvinar sodales ultricies. Duis non quam viverra, laoreet </tspan><tspan x="0" y="1343" fill="#020202" font-family="'Raleway-Regular'" font-size="14" letter-spacing="1">metus ut, aliquet lacus. In rhoncus urna id quam volutpat ornare. Integer sodales quis est a lacinia. Cum </tspan><tspan x="0" y="1370" fill="#020202" font-family="'Raleway-Regular'" font-size="14" letter-spacing="1">sociis natoque penatibus et magnis dis parturient montes, nascetur ridiculus mus. In consequat ac </tspan><tspan x="0" y="1397" fill="#020202" font-family="'Raleway-Regular'" font-size="14" letter-spacing="1">augue in eleifend. Integer malesuada erat vitae arcu viverra, in semper lectus gravida. Proin pharetra </tspan><tspan x="0" y="1424" fill="#020202" font-family="'Raleway-Regular'" font-size="14" letter-spacing="1">fringilla posuere. Aenean dignissim sapien a dolor lobortis suscipit.</tspan></text>
<rect y="128.594" fill="#FF5555" width="1400" height="4.812"/>
<rect x="214" y="245.594" fill="#FF5555" width="101" height="4.812"/>
<rect x="381.726" y="217.688" fill="none" width="410.537" height="117.626"/>
<text transform="matrix(1 0 0 1 381.7261 244.627)" fill="#231F20" font-family="'Raleway-Regular'" font-size="36.9023" letter-spacing="3">Hello, I’m an H1.</text>
<rect x="378" y="1879" opacity="0.15" fill="#020202" width="807" height="1"/>
<g>
	
		<text transform="matrix(1 0 0 1 383.585 1245.0264)" fill="#FF5555" font-family="'FontAwesome'" font-size="49.5007" letter-spacing="3"></text>
</g>
<line fill="none" stroke="#FF5555" stroke-miterlimit="10" x1="735" y1="415.5" x2="903" y2="415.5"/>
<circle fill="#FF5555" cx="1072.146" cy="1828.953" r="17.693"/>
<g>
	<rect x="805.229" y="1824.641" fill="none" width="229.801" height="42.912"/>
	<text transform="matrix(1 0 0 1 899.1396 1833.7383)" fill="#FF5555" font-family="'Raleway-Bold'" font-size="12.4636">Sharing is caring</text>
</g>
<text transform="matrix(1 0 0 1 1064.5645 1835.6934)" fill="#F4F4F4" font-family="'FontAwesome'" font-size="17.7915" letter-spacing="1"></text>
<circle fill="#FF5555" cx="1119.543" cy="1828.953" r="17.693"/>
<text transform="matrix(1 0 0 1 1115.334 1835.6934)" fill="#F4F4F4" font-family="'FontAwesome'" font-size="17.7915" letter-spacing="1"></text>
<circle fill="#FF5555" cx="1164.097" cy="1828.953" r="17.694"/>
<text transform="matrix(1 0 0 1 1157.3584 1835.6934)" fill="#F4F4F4" font-family="'FontAwesome'" font-size="17.7915" letter-spacing="1"></text>
<rect x="382.5" y="453.5" fill="none" stroke="#020202" stroke-miterlimit="10" width="750" height="544"/>
<g>
	<rect x="423.726" y="490.68" fill="none" width="410.537" height="117.626"/>
	<text transform="matrix(1 0 0 1 423.7261 500.9019)"><tspan x="0" y="0" fill="#020202" font-family="'Raleway-SemiBold'" font-size="14" letter-spacing="1">OMG I’m an image!</tspan><tspan x="0" y="27" fill="#020202" font-family="'Raleway'" font-size="14" letter-spacing="1">My maximum width is 750px. </tspan><tspan x="0" y="54" fill="#020202" font-family="'Raleway'" font-size="14" letter-spacing="1">My maximum </tspan><tspan x="95.352" y="54" fill="#020202" font-family="'Raleway-SemiBold'" font-size="14" letter-spacing="1">recommended</tspan><tspan x="206.244" y="54" fill="#020202" font-family="'Raleway'" font-size="14" letter-spacing="1"> height is 750px.</tspan></text>
</g>
<rect x="138.998" y="1972" fill="none" width="178" height="51"/>
<text transform="matrix(1 0 0 1 216.3442 1983.6797)" fill="#231F20" font-family="'Raleway-SemiBold'" font-size="16">April 30, 2014</text>
<rect x="383" y="2040" fill="none" width="785" height="907.03"/>
<text transform="matrix(1 0 0 1 383 2050.2197)"><tspan x="0" y="0" fill="#020202" font-family="'Raleway-Regular'" font-size="14" letter-spacing="1">I am paragraph text. I am light, readable, and easy on the eyes. Consectetur adipiscing elit. Aliquam </tspan><tspan x="0" y="27" fill="#020202" font-family="'Raleway-Regular'" font-size="14" letter-spacing="1">ornare metus tortor, sed dapibus libero euismod id. Aliquam erat volutpat. Sed eu nulla et arcu pellen</tspan><tspan x="766.684" y="27" fill="#020202" font-family="'Raleway-Regular'" font-size="14" letter-spacing="1">-</tspan><tspan x="0" y="54" fill="#020202" font-family="'Raleway-Regular'" font-size="14" letter-spacing="1">tesque volutpat. Nunc nec enim nec tortor egestas consequat. In et elit volutpat, placerat ligula at, </tspan><tspan x="0" y="81" fill="#020202" font-family="'Raleway-Regular'" font-size="14" letter-spacing="1">dignissim augue. Aenean hendrerit magna odio, quis placerat lectus pharetra et. Proin ut nisi elemen</tspan><tspan x="757.401" y="81" fill="#020202" font-family="'Raleway-Regular'" font-size="14" letter-spacing="1">-</tspan><tspan x="0" y="108" fill="#020202" font-family="'Raleway-Regular'" font-size="14" letter-spacing="1">tum, rutrum mauris vitae, placerat tellus.  </tspan><tspan x="315.485" y="108" fill="#FF5555" font-family="'Raleway-Regular'" font-size="14" letter-spacing="1">I’m a link; kiss me, squeeze, click me.</tspan><tspan x="0" y="162" fill="#020202" font-family="'Raleway-Regular'" font-size="14" letter-spacing="1">Aliquam libero eros, eleifend a lacus non, iaculis vestibulum odio. Fusce porttitor scelerisque enim, non </tspan><tspan x="0" y="189" fill="#020202" font-family="'Raleway-Regular'" font-size="14" letter-spacing="1">lobortis diam. Morbi faucibus, libero eget varius aliquet, urna lacus eleifend lacus, in ultrices massa erat </tspan><tspan x="0" y="216" fill="#020202" font-family="'Raleway-Regular'" font-size="14" letter-spacing="1">sed augue. Vivamus aliquam ac lorem quis tempor. Duis suscipit dolor eu libero varius scelerisque. </tspan><tspan x="0" y="243" fill="#020202" font-family="'Raleway-Regular'" font-size="14" letter-spacing="1">Curabitur odio libero, vehicula ac placerat nec, fringilla eget dolor. Maecenas faucibus erat ac malesua</tspan><tspan x="776.121" y="243" fill="#020202" font-family="'Raleway-Regular'" font-size="14" letter-spacing="1">-</tspan><tspan x="0" y="270" fill="#020202" font-family="'Raleway-Regular'" font-size="14" letter-spacing="1">da aliquet. Praesent lobortis nunc eu auctor pharetra.</tspan><tspan x="0" y="324" fill="#020202" font-family="'Raleway-Regular'" font-size="14" letter-spacing="1">Nullam magna sem, sodales ac est nec, pharetra feugiat elit. Fusce quis dictum dui, nec fringilla nulla. </tspan><tspan x="0" y="351" fill="#020202" font-family="'Raleway-Regular'" font-size="14" letter-spacing="1">Cras adipiscing ultrices ligula, a sodales justo scelerisque sit amet. Fusce tempor magna mauris, id </tspan><tspan x="0" y="378" fill="#020202" font-family="'Raleway-Regular'" font-size="14" letter-spacing="1">scelerisque orci sagittis in. Proin volutpat urna metus, et pharetra nunc congue a. Nunc in interdum orci, </tspan><tspan x="0" y="405" fill="#020202" font-family="'Raleway-Regular'" font-size="14" letter-spacing="1">vitae convallis arcu. Sed orci metus, molestie ut risus et, dignissim tincidunt odio.</tspan><tspan x="0" y="459" fill="#020202" font-family="'Raleway-Regular'" font-size="14" letter-spacing="1">I am an unordered list</tspan><tspan x="10" y="491" fill="#020202" font-family="'Raleway-Regular'" font-size="14" letter-spacing="1">•   I’m pretty even when I take up more than one line. Praesent egestas rutrum tellus, a porta eros lac</tspan><tspan x="772.251" y="491" fill="#020202" font-family="'Raleway-Regular'" font-size="14" letter-spacing="1">-</tspan><tspan x="30" y="518" fill="#020202" font-family="'Raleway-Regular'" font-size="14" letter-spacing="1">inia nec. Donec in purus in neque imperdiet pretium. Vivamus porttitor ipsum et orci tincidunt, vitae </tspan><tspan x="30" y="545" fill="#020202" font-family="'Raleway-Regular'" font-size="14" letter-spacing="1">volutpat est convallis. </tspan><tspan x="10" y="577" fill="#020202" font-family="'Raleway-Regular'" font-size="14" letter-spacing="1">•   I’m also pretty on one line.</tspan><tspan x="10" y="609" fill="#020202" font-family="'Raleway-Regular'" font-size="14" letter-spacing="1">•   I have many important things to say.</tspan><tspan x="0" y="668" fill="#020202" font-family="'Raleway-Regular'" font-size="14" letter-spacing="1">Pellentesque consequat tincidunt facilisis. Cras porttitor enim sit amet magna consectetur laoreet. </tspan><tspan x="0" y="695" fill="#020202" font-family="'Raleway-Regular'" font-size="14" letter-spacing="1">Curabitur tristique tincidunt vulputate. Donec pulvinar sodales ultricies. Duis non quam viverra, laoreet </tspan><tspan x="0" y="722" fill="#020202" font-family="'Raleway-Regular'" font-size="14" letter-spacing="1">metus ut, aliquet lacus. In rhoncus urna id quam volutpat ornare. Integer sodales quis est a lacinia. Cum </tspan><tspan x="0" y="749" fill="#020202" font-family="'Raleway-Regular'" font-size="14" letter-spacing="1">sociis natoque penatibus et magnis dis parturient montes, nascetur ridiculus mus. In consequat ac </tspan><tspan x="0" y="776" fill="#020202" font-family="'Raleway-Regular'" font-size="14" letter-spacing="1">augue in eleifend. Integer malesuada erat vitae arcu viverra, in semper lectus gravida. Proin pharetra </tspan><tspan x="0" y="803" fill="#020202" font-family="'Raleway-Regular'" font-size="14" letter-spacing="1">fringilla posuere. Aenean dignissim sapien a dolor lobortis suscipit.</tspan></text>
<rect x="214" y="1994.594" fill="#FF5555" width="101" height="4.812"/>
<rect x="381.726" y="1966.688" fill="none" width="410.537" height="117.626"/>
<text transform="matrix(1 0 0 1 381.7261 1992.8887)" fill="#231F20" font-family="'Raleway'" font-size="36.9023" letter-spacing="3">Hello, I’m an H1.</text>
<rect x="378" y="2983" opacity="0.15" fill="#020202" width="807" height="1"/>
<line fill="none" stroke="#FF5555" stroke-miterlimit="10" x1="661" y1="2164.5" x2="939" y2="2164.5"/>
<circle fill="#FF5555" cx="1072.146" cy="2947.953" r="17.693"/>
<g>
	<rect x="805.229" y="2943.641" fill="none" width="229.801" height="42.912"/>
	<text transform="matrix(1 0 0 1 899.1396 2952.7383)" fill="#FF5555" font-family="'Raleway-Bold'" font-size="12.4636">Sharing is caring</text>
</g>
<text transform="matrix(1 0 0 1 1064.5645 2954.6934)" fill="#F4F4F4" font-family="'FontAwesome'" font-size="17.7915" letter-spacing="1"></text>
<circle fill="#FF5555" cx="1119.543" cy="2947.953" r="17.693"/>
<text transform="matrix(1 0 0 1 1115.334 2954.6934)" fill="#F4F4F4" font-family="'FontAwesome'" font-size="17.7915" letter-spacing="1"></text>
<circle fill="#FF5555" cx="1164.097" cy="2947.953" r="17.694"/>
<text transform="matrix(1 0 0 1 1157.3584 2954.6934)" fill="#F4F4F4" font-family="'FontAwesome'" font-size="17.7915" letter-spacing="1"></text>
<g>
	<text transform="matrix(1 0 0 1 765.7979 76.5283)"><tspan x="0" y="0" fill="#B2B2B2" font-family="'FontAwesome'" font-size="18" letter-spacing="1"></tspan><tspan x="19.8" y="0" fill="#FFFFFF" font-family="'Raleway'" font-size="18" letter-spacing="1">  email</tspan></text>
</g>
<g>
	<text transform="matrix(1 0 0 1 1050.7979 76.5283)"><tspan x="0" y="0" fill="#B2B2B2" font-family="'FontAwesome'" font-size="18" letter-spacing="1"></tspan><tspan x="18.514" y="0" fill="#FFFFFF" font-family="'Raleway'" font-size="18" letter-spacing="1">  github</tspan></text>
</g>
<g>
	<text transform="matrix(1 0 0 1 1190.7939 76.5283)"><tspan x="0" y="0" fill="#B2B2B2" font-family="'FontAwesome'" font-size="18" letter-spacing="1"></tspan><tspan x="18.514" y="0" fill="#FFFFFF" font-family="'Raleway'" font-size="18" letter-spacing="1">  google+</tspan></text>
</g>
<g>
	<rect x="686.688" y="3052.803" fill="none" width="288.819" height="31.214"/>
	<text transform="matrix(1 0 0 1 686.686 3064.2607)"><tspan x="0" y="0" fill="#020202" font-family="'OstrichSans-Medium'" font-size="17" letter-spacing="1">1</tspan><tspan x="4.998" y="0" fill="#020202" font-family="'OstrichSans-Medium'" font-size="17" letter-spacing="33">	</tspan><tspan x="42.467" y="0" fill="#020202" font-family="'OstrichSans-Medium'" font-size="17" letter-spacing="1">2</tspan><tspan x="49.607" y="0" fill="#020202" font-family="'OstrichSans-Medium'" font-size="17" letter-spacing="31">	</tspan><tspan x="84.935" y="0" fill="#020202" font-family="'OstrichSans-Medium'" font-size="17" letter-spacing="1">3</tspan><tspan x="91.786" y="0" fill="#020202" font-family="'OstrichSans-Medium'" font-size="17" letter-spacing="32">	</tspan><tspan x="127.402" y="0" fill="#020202" font-family="'OstrichSans-Medium'" font-size="17" letter-spacing="1">4</tspan><tspan x="134.611" y="0" fill="#020202" font-family="'OstrichSans-Medium'" font-size="17" letter-spacing="31">	</tspan><tspan x="169.87" y="0" fill="#020202" font-family="'OstrichSans-Medium'" font-size="17" letter-spacing="1">5 </tspan></text>
</g>
<rect y="3150" opacity="0.05" fill="#020202" width="1400" height="106"/>
<rect y="3149.594" fill="#FF5555" width="1400" height="4.812"/>
<g>
	<polygon fill="#666666" points="152.803,3194.201 150.854,3194.201 150.854,3191.744 148.486,3191.744 148.486,3189.758 
		146.408,3189.758 146.408,3187.301 144.043,3187.301 144.043,3185.185 141.834,3185.185 141.834,3182.725 139.469,3182.725 
		139.469,3180.74 137.258,3180.74 137.258,3178.28 134.961,3178.28 134.961,3176.231 130.324,3176.231 130.324,3178.28 
		127.912,3178.28 127.912,3180.74 125.814,3180.74 125.814,3182.725 123.404,3182.725 123.404,3185.185 121.241,3185.185 
		121.241,3187.301 118.762,3187.301 118.762,3189.758 116.667,3189.758 116.667,3191.744 114.32,3191.744 114.32,3194.201 
		112.094,3194.201 112.094,3203.348 114.515,3203.348 114.515,3205.73 116.862,3205.73 116.862,3207.823 121.434,3207.823 
		121.499,3207.823 126.072,3207.823 126.072,3205.73 128.369,3205.73 128.369,3203.348 130.129,3203.348 130.129,3209.691 
		125.814,3209.691 125.814,3214.331 139.469,3214.331 139.469,3209.691 134.768,3209.691 134.768,3203.348 136.344,3203.348 
		136.344,3205.73 138.727,3205.73 138.727,3207.823 148.391,3207.823 148.391,3205.73 150.721,3205.73 150.721,3203.348 
		152.803,3203.348 	"/>
	<text transform="matrix(1 0 0 1 175.2759 3194.1992)"><tspan x="0" y="0" fill="#020202" font-family="'Raleway'" font-size="12" letter-spacing="1">© 2014 Jack Tarantino</tspan><tspan x="0" y="14.4" fill="#020202" font-family="'Raleway'" font-size="12" letter-spacing="1">All rights reserved</tspan></text>
</g>
<rect x="2138" fill="#020202" width="1400" height="133"/>
<rect x="2138" y="133" opacity="0.05" fill="#020202" width="1400" height="1996"/>
<g>
	<text transform="matrix(1 0 0 1 3041.7979 76.5283)"><tspan x="0" y="0" fill="#B2B2B2" font-family="'FontAwesome'" font-size="18" letter-spacing="1"></tspan><tspan x="18.514" y="0" fill="#FFFFFF" font-family="'Raleway'" font-size="18" letter-spacing="1">  twitter</tspan></text>
</g>
<polygon fill="#666666" points="2334.996,61.745 2331.316,61.745 2331.316,57.11 2326.854,57.11 2326.854,53.363 2322.933,53.363 
	2322.933,48.729 2318.473,48.729 2318.473,44.737 2314.304,44.737 2314.304,40.099 2309.844,40.099 2309.844,36.353 
	2305.674,36.353 2305.674,31.717 2301.344,31.717 2301.344,27.85 2292.594,27.85 2292.594,31.717 2288.047,31.717 2288.047,36.353 
	2284.089,36.353 2284.089,40.099 2279.543,40.099 2279.543,44.737 2275.461,44.737 2275.461,48.729 2270.789,48.729 
	2270.789,53.363 2266.836,53.363 2266.836,57.11 2262.406,57.11 2262.406,61.745 2258.209,61.745 2258.209,78.999 2262.775,78.999 
	2262.775,83.491 2267.202,83.491 2267.202,87.44 2275.826,87.44 2275.949,87.44 2284.575,87.44 2284.575,83.491 2288.909,83.491 
	2288.909,78.999 2292.229,78.999 2292.229,90.965 2284.089,90.965 2284.089,99.713 2309.844,99.713 2309.844,90.965 
	2300.979,90.965 2300.979,78.999 2303.949,78.999 2303.949,83.491 2308.445,83.491 2308.445,87.44 2326.674,87.44 2326.674,83.491 
	2331.068,83.491 2331.068,78.999 2334.996,78.999 "/>
<text transform="matrix(1 0 0 1 2365.6523 83.4292)" fill="#FFFFFF" font-family="'OstrichSans-Bold'" font-size="51.309" letter-spacing="5">jack tarantino</text>
<rect x="2276.998" y="219" fill="none" width="178" height="51"/>
<text transform="matrix(1 0 0 1 2354.3438 230.6797)" fill="#231F20" font-family="'Raleway-SemiBold'" font-size="16">April 30, 2014</text>
<rect x="2521" y="287.997" fill="none" width="785" height="1516"/>
<text transform="matrix(1 0 0 1 2521 298.2173)"><tspan x="0" y="0" fill="#020202" font-family="'Raleway-SemiBold'" font-size="14" letter-spacing="1">I am paragraph text. </tspan><tspan x="159.57" y="0" fill="#020202" font-family="'Raleway'" font-size="14" letter-spacing="1">I am light, readable, and easy on the eyes. Consectetur adipiscing elit. Aliquam ornare </tspan><tspan x="0" y="27" fill="#020202" font-family="'Raleway'" font-size="14" letter-spacing="1">metus tortor, sed dapibus libero euismod id. Aliquam erat volutpat. Sed eu nulla et arcu pellentesque volutpat. </tspan><tspan x="0" y="54" fill="#020202" font-family="'Raleway'" font-size="14" letter-spacing="1">Nunc nec enim nec tortor egestas consequat. In et elit volutpat, placerat ligula at, dignissim augue. Aenean hen</tspan><tspan x="771.441" y="54" fill="#020202" font-family="'Raleway'" font-size="14" letter-spacing="1">-</tspan><tspan x="0" y="81" fill="#020202" font-family="'Raleway'" font-size="14" letter-spacing="1">drerit magna odio, quis placerat lectus pharetra et. Proin ut nisi elementum, rutrum mauris vitae, placerat tellus.  </tspan><tspan x="0" y="108" fill="#FF5555" font-family="'Raleway'" font-size="14" letter-spacing="1">I’m a link; but I’m a link on hover. </tspan><tspan x="0" y="729" fill="#020202" font-family="'Raleway'" font-size="14" letter-spacing="1">Aliquam libero eros, eleifend a lacus non, iaculis vestibulum odio. Fusce porttitor scelerisque enim, non lobortis </tspan><tspan x="0" y="756" fill="#020202" font-family="'Raleway'" font-size="14" letter-spacing="1">diam. Morbi faucibus, libero eget varius aliquet, urna lacus eleifend lacus, in ultrices massa erat sed augue. </tspan><tspan x="0" y="783" fill="#020202" font-family="'Raleway'" font-size="14" letter-spacing="1">Vivamus aliquam ac lorem quis tempor. Duis suscipit dolor eu libero varius scelerisque. Curabitur odio libero, </tspan><tspan x="0" y="810" fill="#020202" font-family="'Raleway'" font-size="14" letter-spacing="1">vehicula ac placerat nec, fringilla eget dolor. Maecenas faucibus erat ac malesuada aliquet. Praesent lobortis </tspan><tspan x="0" y="837" fill="#020202" font-family="'Raleway'" font-size="14" letter-spacing="1">nunc eu auctor pharetra.</tspan><tspan x="70" y="891" fill="#020202" font-family="'Raleway'" font-size="14" letter-spacing="1">Nullam magna sem, sodales ac est nec, pharetra feugiat elit. Fusce quis dictum dui, nec fringilla nulla. </tspan><tspan x="70" y="918" fill="#020202" font-family="'Raleway'" font-size="14" letter-spacing="1">Cras adipiscing ultrices ligula, a sodales justo scelerisque sit amet. Fusce tempor magna mauris, id scel</tspan><tspan x="778.819" y="918" fill="#020202" font-family="'Raleway'" font-size="14" letter-spacing="1">-</tspan><tspan x="70" y="945" fill="#020202" font-family="'Raleway'" font-size="14" letter-spacing="1">erisque orci sagittis in. Proin volutpat urna metus, et pharetra nunc congue a. Nunc in interdum orci, </tspan><tspan x="70" y="972" fill="#020202" font-family="'Raleway'" font-size="14" letter-spacing="1">vitae convallis arcu. Sed orci metus, molestie ut risus et, dignissim tincidunt odio.</tspan><tspan x="0" y="1026" fill="#020202" font-family="'Raleway'" font-size="14" letter-spacing="1">I am an unordered list</tspan><tspan x="10" y="1058" fill="#020202" font-family="'Raleway'" font-size="14" letter-spacing="1">•   I’m pretty even when I take up more than one line. Praesent egestas rutrum tellus, a porta eros lacinia nec. </tspan><tspan x="30" y="1085" fill="#020202" font-family="'Raleway'" font-size="14" letter-spacing="1">Donec in purus in neque imperdiet pretium. Vivamus porttitor ipsum et orci tincidunt, vitae volutpat est con</tspan><tspan x="778.282" y="1085" fill="#020202" font-family="'Raleway'" font-size="14" letter-spacing="1">-</tspan><tspan x="30" y="1112" fill="#020202" font-family="'Raleway'" font-size="14" letter-spacing="1">vallis. </tspan><tspan x="10" y="1144" fill="#020202" font-family="'Raleway'" font-size="14" letter-spacing="1">•   I’m also pretty on one line.</tspan><tspan x="10" y="1176" fill="#020202" font-family="'Raleway'" font-size="14" letter-spacing="1">•   I have many important things to say.</tspan><tspan x="0" y="1235" fill="#020202" font-family="'Raleway'" font-size="14" letter-spacing="1">Pellentesque consequat tincidunt facilisis. Cras porttitor enim sit amet magna consectetur laoreet. Curabitur tris</tspan><tspan x="775.697" y="1235" fill="#020202" font-family="'Raleway'" font-size="14" letter-spacing="1">-</tspan><tspan x="0" y="1262" fill="#020202" font-family="'Raleway'" font-size="14" letter-spacing="1">tique tincidunt vulputate. Donec pulvinar sodales ultricies. Duis non quam viverra, laoreet metus ut, aliquet </tspan><tspan x="0" y="1289" fill="#020202" font-family="'Raleway'" font-size="14" letter-spacing="1">lacus. In rhoncus urna id quam volutpat ornare. Integer sodales quis est a lacinia. Cum sociis natoque penatibus </tspan><tspan x="0" y="1316" fill="#020202" font-family="'Raleway'" font-size="14" letter-spacing="1">et magnis dis parturient montes, nascetur ridiculus mus. In consequat ac augue in eleifend. Integer malesuada </tspan><tspan x="0" y="1343" fill="#020202" font-family="'Raleway'" font-size="14" letter-spacing="1">erat vitae arcu viverra, in semper lectus gravida. Proin pharetra fringilla posuere. Aenean dignissim sapien a dolor </tspan><tspan x="0" y="1370" fill="#020202" font-family="'Raleway'" font-size="14" letter-spacing="1">lobortis suscipit.</tspan></text>
<rect x="2138" y="128.594" fill="#FF5555" width="1400" height="4.812"/>
<rect x="2352" y="241.594" fill="#FF5555" width="101" height="4.812"/>
<rect x="2519.726" y="213.688" fill="none" width="410.537" height="117.626"/>
<text transform="matrix(1 0 0 1 2519.7266 239.8887)" fill="#231F20" font-family="'Raleway'" font-size="36.9023" letter-spacing="3">Hello, I’m an H1.</text>
<rect x="2516" y="1875" opacity="0.15" fill="#020202" width="807" height="1"/>
<path fill="none" stroke="#FF5555" stroke-miterlimit="10" d="M2615.412,1821c0,7.732-4.572,14-10.213,14h-76.986
	c-5.641,0-10.213-6.268-10.213-14l0,0c0-7.732,4.572-14,10.213-14h76.986C2610.84,1807,2615.412,1813.268,2615.412,1821
	L2615.412,1821z"/>
<g>
	
		<text transform="matrix(1 0 0 1 2521.585 1216.0264)" fill="#FF5555" font-family="'FontAwesome'" font-size="49.5007" letter-spacing="3"></text>
</g>
<line fill="none" stroke="#FF5555" stroke-miterlimit="10" x1="2873" y1="411.5" x2="3042" y2="411.5"/>
<g>
	<rect x="2440.747" y="1816.683" fill="none" width="253.708" height="27.419"/>
	<text transform="matrix(1 0 0 1 2543.0293 1825.4434)" fill="#FF5555" font-family="'Raleway-Bold'" font-size="12">Design</text>
</g>
<circle fill="#FF5555" cx="3210.146" cy="1824.953" r="17.693"/>
<path fill="none" stroke="#FF5555" stroke-miterlimit="10" d="M2725,1821c0,7.732-4.228,14-9.443,14h-71.19
	c-5.216,0-9.444-6.268-9.444-14l0,0c0-7.732,4.229-14,9.444-14h71.19C2720.772,1807,2725,1813.268,2725,1821L2725,1821z"/>
<g>
	<rect x="2554.746" y="1816.683" fill="none" width="253.708" height="27.419"/>
	<text transform="matrix(1 0 0 1 2661.2471 1825.4434)" fill="#FF5555" font-family="'Raleway-Bold'" font-size="12">Style</text>
</g>
<g>
	<rect x="2943.229" y="1820.641" fill="none" width="229.801" height="42.912"/>
	<text transform="matrix(1 0 0 1 3037.1396 1829.7383)" fill="#FF5555" font-family="'Raleway-Bold'" font-size="12.4636">Sharing is caring</text>
</g>
<text transform="matrix(1 0 0 1 3202.5645 1831.6934)" fill="#F4F4F4" font-family="'FontAwesome'" font-size="17.7915" letter-spacing="1"></text>
<circle fill="#FF5555" cx="3257.543" cy="1824.953" r="17.693"/>
<text transform="matrix(1 0 0 1 3253.334 1831.6934)" fill="#F4F4F4" font-family="'FontAwesome'" font-size="17.7915" letter-spacing="1"></text>
<circle fill="#FF5555" cx="3302.097" cy="1824.953" r="17.694"/>
<text transform="matrix(1 0 0 1 3295.3584 1831.6934)" fill="#F4F4F4" font-family="'FontAwesome'" font-size="17.7915" letter-spacing="1"></text>
<rect x="2520.5" y="449.5" fill="none" stroke="#020202" stroke-miterlimit="10" width="750" height="544"/>
<g>
	<rect x="2561.726" y="486.68" fill="none" width="410.537" height="117.626"/>
	<text transform="matrix(1 0 0 1 2561.7266 496.9019)"><tspan x="0" y="0" fill="#020202" font-family="'Raleway-SemiBold'" font-size="14" letter-spacing="1">OMG I’m an image!</tspan><tspan x="0" y="27" fill="#020202" font-family="'Raleway'" font-size="14" letter-spacing="1">My maximum width is 750px. </tspan><tspan x="0" y="54" fill="#020202" font-family="'Raleway'" font-size="14" letter-spacing="1">My maximum </tspan><tspan x="95.352" y="54" fill="#020202" font-family="'Raleway-SemiBold'" font-size="14" letter-spacing="1">recommended</tspan><tspan x="206.244" y="54" fill="#020202" font-family="'Raleway'" font-size="14" letter-spacing="1"> height is 750px.</tspan></text>
</g>
<g>
	<text transform="matrix(1 0 0 1 2903.7979 76.5283)"><tspan x="0" y="0" fill="#B2B2B2" font-family="'FontAwesome'" font-size="18" letter-spacing="1"></tspan><tspan x="19.8" y="0" fill="#FFFFFF" font-family="'Raleway'" font-size="18" letter-spacing="1">  email</tspan></text>
</g>
<g>
	<text transform="matrix(1 0 0 1 3188.7979 76.5283)"><tspan x="0" y="0" fill="#B2B2B2" font-family="'FontAwesome'" font-size="18" letter-spacing="1"></tspan><tspan x="18.514" y="0" fill="#FFFFFF" font-family="'Raleway'" font-size="18" letter-spacing="1">  github</tspan></text>
</g>
<g>
	<text transform="matrix(1 0 0 1 3328.7939 76.5283)"><tspan x="0" y="0" fill="#B2B2B2" font-family="'FontAwesome'" font-size="18" letter-spacing="1"></tspan><tspan x="18.514" y="0" fill="#FFFFFF" font-family="'Raleway'" font-size="18" letter-spacing="1">  google+</tspan></text>
</g>
<rect x="2545.676" y="1916.854" fill="none" width="288.819" height="31.214"/>
<text transform="matrix(1 0 0 1 2545.6758 1928.3125)" fill="#020202" font-family="'OstrichSans-Medium'" font-size="17" letter-spacing="1">previous post</text>
<text transform="matrix(0.5653 0 0 1 2517 1930.2031)" opacity="0.25" fill="#020202" font-family="'HelveticaNeue-Light'" font-size="30.0717" letter-spacing="1.769">&lt;</text>
<rect x="3225.679" y="1916.854" fill="none" width="99.324" height="28.146"/>
<text transform="matrix(1 0 0 1 3225.6777 1928.3125)" fill="#020202" font-family="'OstrichSans-Medium'" font-size="17" letter-spacing="1">next post</text>
<text transform="matrix(-0.5653 0 0 1 3321 1930.2031)" opacity="0.25" fill="#020202" font-family="'HelveticaNeue-Light'" font-size="30.0717" letter-spacing="1.769">&lt;</text>
<rect x="2779.667" y="1916.854" fill="none" width="288.819" height="31.214"/>
<text transform="matrix(1 0 0 1 2881.1719 1928.3125)" fill="#020202" font-family="'OstrichSans-Medium'" font-size="17" letter-spacing="1">Back to blog</text>
<text transform="matrix(-0.5653 0 0 1 898 3065.2031)" opacity="0.25" fill="#020202" font-family="'HelveticaNeue-Light'" font-size="30.0717" letter-spacing="1.769">&lt;</text>
<text transform="matrix(-0.5653 0 0 1 922 3065.2031)" opacity="0.25" fill="#020202" font-family="'HelveticaNeue-Light'" font-size="30.0717" letter-spacing="1.769">&lt;</text>
<text transform="matrix(-0.5653 0 0 1 929 3065.2031)" opacity="0.25" fill="#020202" font-family="'HelveticaNeue-Light'" font-size="30.0717" letter-spacing="1.769">&lt;</text>
<rect x="2138" y="2025" opacity="0.05" fill="#020202" width="1400" height="106"/>
<rect x="2138" y="2024.594" fill="#FF5555" width="1400" height="4.812"/>
<polygon fill="#666666" points="2293.803,2079.201 2291.854,2079.201 2291.854,2076.744 2289.486,2076.744 2289.486,2074.758 
	2287.408,2074.758 2287.408,2072.301 2285.043,2072.301 2285.043,2070.185 2282.834,2070.185 2282.834,2067.725 2280.469,2067.725 
	2280.469,2065.74 2278.258,2065.74 2278.258,2063.28 2275.961,2063.28 2275.961,2061.231 2271.324,2061.231 2271.324,2063.28 
	2268.912,2063.28 2268.912,2065.74 2266.814,2065.74 2266.814,2067.725 2264.404,2067.725 2264.404,2070.185 2262.24,2070.185 
	2262.24,2072.301 2259.762,2072.301 2259.762,2074.758 2257.668,2074.758 2257.668,2076.744 2255.32,2076.744 2255.32,2079.201 
	2253.094,2079.201 2253.094,2088.348 2255.516,2088.348 2255.516,2090.73 2257.861,2090.73 2257.861,2092.823 2262.434,2092.823 
	2262.498,2092.823 2267.072,2092.823 2267.072,2090.73 2269.369,2090.73 2269.369,2088.348 2271.129,2088.348 2271.129,2094.691 
	2266.814,2094.691 2266.814,2099.331 2280.469,2099.331 2280.469,2094.691 2275.768,2094.691 2275.768,2088.348 2277.344,2088.348 
	2277.344,2090.73 2279.727,2090.73 2279.727,2092.823 2289.391,2092.823 2289.391,2090.73 2291.721,2090.73 2291.721,2088.348 
	2293.803,2088.348 "/>
<text transform="matrix(1 0 0 1 2316.2754 2079.1992)"><tspan x="0" y="0" fill="#020202" font-family="'Raleway'" font-size="12" letter-spacing="1">© 2014 Jack Tarantino</tspan><tspan x="0" y="14.4" fill="#020202" font-family="'Raleway'" font-size="12" letter-spacing="1">All rights reserved</tspan></text>
<path fill="none" stroke="#FF5555" stroke-miterlimit="10" d="M2869.667,1821c0,7.732-5.761,14-12.868,14h-97.008
	c-7.107,0-12.869-6.268-12.869-14l0,0c0-7.732,5.762-14,12.869-14h97.008C2863.906,1807,2869.667,1813.268,2869.667,1821
	L2869.667,1821z"/>
<g>
	<rect x="2684.412" y="1816.683" fill="none" width="253.708" height="27.419"/>
	<text transform="matrix(1 0 0 1 2772.5293 1825.4434)" fill="#FF5555" font-family="'Raleway-Bold'" font-size="12">Tarantino</text>
</g>
<text transform="matrix(1 0 0 1 2377.3584 803.6934)" fill="#F4F4F4" font-family="'FontAwesome'" font-size="17.7915" letter-spacing="1"></text>
<circle fill="#FF5555" cx="1702" cy="929.954" r="17.693"/>
<g>
	<rect x="1435.083" y="925.641" fill="none" width="229.801" height="42.912"/>
	<text transform="matrix(1 0 0 1 1528.9932 934.7388)" fill="#FF5555" font-family="'Raleway-Bold'" font-size="12.4636">Sharing is caring</text>
</g>
<text transform="matrix(1 0 0 1 1694.418 936.6938)" fill="#F4F4F4" font-family="'FontAwesome'" font-size="17.7915" letter-spacing="1"></text>
<circle fill="#FF5555" cx="1749.396" cy="929.954" r="17.693"/>
<text transform="matrix(1 0 0 1 1745.1875 936.6938)" fill="#F4F4F4" font-family="'FontAwesome'" font-size="17.7915" letter-spacing="1"></text>
<circle fill="#020202" cx="1793.95" cy="929.954" r="17.694"/>
<text transform="matrix(1 0 0 1 1787.2119 936.6938)" fill="#F4F4F4" font-family="'FontAwesome'" font-size="17.7915" letter-spacing="1"></text>
<text transform="matrix(1 0 0 1 1529.6475 35.5288)" fill="#020202" font-family="'Raleway'" font-size="14" letter-spacing="1">link styles</text>
<path fill="#58595B" d="M1842.319,954.09l-38.425-15.871c-0.248-0.102-0.533-0.045-0.722,0.144c-0.19,0.189-0.246,0.474-0.145,0.722
	l15.871,38.425c0.104,0.249,0.345,0.409,0.612,0.409c0.013,0,0.025,0,0.038-0.001c0.281-0.015,0.522-0.208,0.6-0.479l4.911-17.188
	l17.188-4.911c0.271-0.078,0.463-0.318,0.479-0.599C1842.744,954.459,1842.58,954.198,1842.319,954.09z"/>
<rect x="1522" y="97" fill="#020202" width="377" height="133"/>
<rect x="1521" y="248" fill="#020202" width="153" height="133"/>
<g>
	<text transform="matrix(1 0 0 1 1545.6475 324.5288)"><tspan x="0" y="0" fill="#FF5555" font-family="'FontAwesome'" font-size="18" letter-spacing="1"></tspan><tspan x="18.514" y="0" fill="#FF5555" font-family="'Raleway'" font-size="18" letter-spacing="1">  google+</tspan></text>
</g>
<path fill="#58595B" d="M1679.319,338.09l-38.425-15.871c-0.248-0.102-0.533-0.045-0.722,0.144c-0.19,0.189-0.246,0.474-0.145,0.722
	l15.871,38.425c0.104,0.249,0.345,0.409,0.612,0.409c0.013,0,0.025,0,0.038-0.001c0.281-0.015,0.522-0.208,0.6-0.479l4.911-17.188
	l17.188-4.911c0.271-0.078,0.463-0.318,0.479-0.599C1679.744,338.459,1679.58,338.198,1679.319,338.09z"/>
<text transform="matrix(1 0 0 1 1529.6475 78.5288)" fill="#545454" font-family="'Raleway'" font-size="10" letter-spacing="1">navigation</text>
<polygon fill="none" stroke="#666666" stroke-miterlimit="10" points="1603.757,161.371 1601.209,161.371 1601.209,158.162 
	1598.118,158.162 1598.118,155.567 1595.403,155.567 1595.403,152.358 1592.314,152.358 1592.314,149.593 1589.428,149.593 
	1589.428,146.382 1586.34,146.382 1586.34,143.788 1583.451,143.788 1583.451,140.577 1580.453,140.577 1580.453,137.899 
	1574.394,137.899 1574.394,140.577 1571.245,140.577 1571.245,143.788 1568.504,143.788 1568.504,146.382 1565.355,146.382 
	1565.355,149.593 1562.529,149.593 1562.529,152.358 1559.294,152.358 1559.294,155.567 1556.557,155.567 1556.557,158.162 
	1553.488,158.162 1553.488,161.371 1550.582,161.371 1550.582,173.32 1553.744,173.32 1553.744,176.431 1556.811,176.431 
	1556.811,179.165 1562.782,179.165 1562.867,179.165 1568.841,179.165 1568.841,176.431 1571.842,176.431 1571.842,173.32 
	1574.141,173.32 1574.141,181.606 1568.504,181.606 1568.504,187.665 1586.34,187.665 1586.34,181.606 1580.2,181.606 
	1580.2,173.32 1582.258,173.32 1582.258,176.431 1585.371,176.431 1585.371,179.165 1597.994,179.165 1597.994,176.431 
	1601.037,176.431 1601.037,173.32 1603.757,173.32 "/>
<g>
	
		<text transform="matrix(1 0 0 1 1624.9863 176.3882)" fill="#FF5555" font-family="'OstrichSans-Bold'" font-size="35.5313" letter-spacing="3">jack tarantino</text>
</g>
<path fill="#58595B" d="M1905.319,190.09l-38.425-15.871c-0.248-0.102-0.533-0.045-0.722,0.144c-0.19,0.189-0.246,0.474-0.145,0.722
	l15.871,38.425c0.104,0.249,0.345,0.409,0.612,0.409c0.013,0,0.025,0,0.038-0.001c0.281-0.015,0.522-0.208,0.6-0.479l4.911-17.188
	l17.188-4.911c0.271-0.078,0.463-0.318,0.479-0.599C1905.744,190.459,1905.58,190.198,1905.319,190.09z"/>
<text transform="matrix(1 0 0 1 1529.6475 902.5288)" fill="#545454" font-family="'Raleway'" font-size="10" letter-spacing="1">Social</text>
<g>
	<rect x="1527.582" y="469.688" fill="none" width="410.537" height="117.626"/>
	
		<text transform="matrix(1 0 0 1 1527.582 495.8892)" fill="#FF5555" font-family="'Raleway'" font-size="36.9023" letter-spacing="3">Hello, I’m an H1.</text>
</g>
<text transform="matrix(1 0 0 1 1529.6475 446.5288)" fill="#545454" font-family="'Raleway'" font-size="10" letter-spacing="1">Typography</text>
<path fill="#58595B" d="M1878.322,511.09l-38.425-15.871c-0.248-0.102-0.533-0.045-0.722,0.144c-0.19,0.189-0.246,0.474-0.145,0.722
	l15.871,38.425c0.104,0.249,0.345,0.409,0.612,0.409c0.013,0,0.025,0,0.038-0.001c0.281-0.015,0.522-0.208,0.6-0.479l4.911-17.188
	l17.188-4.911c0.271-0.078,0.463-0.318,0.479-0.599C1878.747,511.459,1878.583,511.198,1878.322,511.09z"/>
<text transform="matrix(1 0 0 1 1530.8535 561.248)" fill="#FF5555" font-family="'Raleway'" font-size="14" letter-spacing="1">I’m a link; but I’m a link on hover.</text>
<line fill="none" stroke="#FF5555" stroke-miterlimit="10" x1="1606" y1="567.5" x2="1774" y2="567.5"/>
<path fill="#58595B" d="M1807.112,576.84l-38.425-15.871c-0.248-0.102-0.533-0.045-0.722,0.144c-0.19,0.189-0.246,0.474-0.145,0.722
	l15.871,38.425c0.104,0.249,0.345,0.409,0.612,0.409c0.013,0,0.025,0,0.038-0.001c0.281-0.015,0.522-0.208,0.6-0.479l4.911-17.188
	l17.188-4.911c0.271-0.078,0.463-0.318,0.479-0.599C1807.537,577.208,1807.373,576.948,1807.112,576.84z"/>
<g>
	<rect x="1526.542" y="689.803" fill="none" width="288.819" height="31.214"/>
	<text transform="matrix(1 0 0 1 1526.5391 701.2612)"><tspan x="0" y="0" fill="#020202" font-family="'OstrichSans-Medium'" font-size="17" letter-spacing="1">1</tspan><tspan x="4.998" y="0" fill="#020202" font-family="'OstrichSans-Medium'" font-size="17" letter-spacing="33">	</tspan><tspan x="42.468" y="0" fill="#020202" font-family="'OstrichSans-Medium'" font-size="17" letter-spacing="1">2</tspan><tspan x="49.607" y="0" fill="#020202" font-family="'OstrichSans-Medium'" font-size="17" letter-spacing="31">	</tspan><tspan x="84.936" y="0" fill="#020202" font-family="'OstrichSans-Medium'" font-size="17" letter-spacing="1">3</tspan><tspan x="91.786" y="0" fill="#020202" font-family="'OstrichSans-Medium'" font-size="17" letter-spacing="32">	</tspan><tspan x="127.402" y="0" fill="#020202" font-family="'OstrichSans-Medium'" font-size="17" letter-spacing="1">4</tspan><tspan x="134.611" y="0" fill="#020202" font-family="'OstrichSans-Medium'" font-size="17" letter-spacing="31">	</tspan><tspan x="169.87" y="0" fill="#020202" font-family="'OstrichSans-Medium'" font-size="17" letter-spacing="1">5 </tspan></text>
</g>
<text transform="matrix(-0.5653 0 0 1 1737.8555 702.2031)" opacity="0.25" fill="#020202" font-family="'HelveticaNeue-Light'" font-size="30.0717" letter-spacing="1.769">&lt;</text>
<g>
	
		<text transform="matrix(-0.5653 0 0 1 1768.8555 702.2031)" fill="#FF5555" font-family="'HelveticaNeue-Light'" font-size="30.0717" letter-spacing="1.769">&lt;</text>
</g>
<path fill="none" stroke="#020202" stroke-miterlimit="10" d="M1624.5,805.5c0,7.732-4.572,14-10.213,14h-76.574
	c-5.641,0-10.213-6.268-10.213-14l0,0c0-7.732,4.572-14,10.213-14h76.574C1619.928,791.5,1624.5,797.768,1624.5,805.5L1624.5,805.5z
	"/>
<rect x="1451.601" y="800.684" fill="none" width="253.708" height="27.419"/>
<text transform="matrix(1 0 0 1 1553.8828 809.4443)" fill="#020202" font-family="'Raleway-Bold'" font-size="12">Design</text>
<text transform="matrix(1 0 0 1 1529.6475 651.5288)" fill="#545454" font-family="'Raleway'" font-size="10" letter-spacing="1">page nav</text>
<g>
	
		<text transform="matrix(-0.5653 0 0 1 1761.8555 702.2031)" fill="#FF5555" font-family="'HelveticaNeue-Light'" font-size="30.0717" letter-spacing="1.769">&lt;</text>
</g>
<path fill="#58595B" d="M1802.112,712.84l-38.425-15.871c-0.248-0.102-0.533-0.045-0.722,0.144c-0.19,0.189-0.246,0.474-0.145,0.722
	l15.871,38.425c0.104,0.249,0.345,0.409,0.612,0.409c0.013,0,0.025,0,0.038-0.001c0.281-0.015,0.522-0.208,0.6-0.479l4.911-17.188
	l17.188-4.911c0.271-0.078,0.463-0.318,0.479-0.599C1802.537,713.208,1802.373,712.948,1802.112,712.84z"/>
<text transform="matrix(1 0 0 1 1529.6475 768.5288)" fill="#545454" font-family="'Raleway'" font-size="10" letter-spacing="1">Tags</text>
<path fill="#58595B" d="M1651.112,830.84l-38.425-15.871c-0.248-0.102-0.533-0.045-0.722,0.144c-0.19,0.189-0.246,0.474-0.145,0.722
	l15.871,38.425c0.104,0.249,0.345,0.409,0.612,0.409c0.013,0,0.025,0,0.038-0.001c0.281-0.015,0.522-0.208,0.6-0.479l4.911-17.188
	l17.188-4.911c0.271-0.078,0.463-0.318,0.479-0.599C1651.537,831.208,1651.373,830.948,1651.112,830.84z"/>
</svg>
