<?xml version="1.0" encoding="utf-8"?>
<!-- Generator: Adobe Illustrator 16.0.0, SVG Export Plug-In . SVG Version: 6.00 Build 0)  -->
<!DOCTYPE svg PUBLIC "-//W3C//DTD SVG 1.1//EN" "http://www.w3.org/Graphics/SVG/1.1/DTD/svg11.dtd">
<svg version="1.1" id="Layer_1" xmlns="http://www.w3.org/2000/svg" xmlns:xlink="http://www.w3.org/1999/xlink" x="0px" y="0px"
	 width="76.787px" height="71.864px" viewBox="0 0 76.787 71.864" enable-background="new 0 0 76.787 71.864" xml:space="preserve">
<polygon stroke="#000000" stroke-width="1" fill="#666666" points="76.787,33.895 73.107,33.895 73.107,29.261 68.645,29.261 68.645,25.514 64.724,25.514
	64.724,20.879 60.263,20.879 60.263,16.887 56.095,16.887 56.095,12.25 51.635,12.25 51.635,8.503 47.465,8.503 47.465,3.867
	43.134,3.867 43.134,0 34.385,0 34.385,3.867 29.837,3.867 29.837,8.503 25.88,8.503 25.88,12.25 21.334,12.25 21.334,16.887
	17.252,16.887 17.252,20.879 12.58,20.879 12.58,25.514 8.626,25.514 8.626,29.261 4.198,29.261 4.198,33.895 0,33.895 0,51.149
	4.567,51.149 4.567,55.642 8.993,55.642 8.993,59.59 17.617,59.59 17.74,59.59 26.366,59.59 26.366,55.642 30.7,55.642 30.7,51.149
	34.02,51.149 34.02,63.116 25.88,63.116 25.88,71.864 51.635,71.864 51.635,63.116 42.77,63.116 42.77,51.149 45.74,51.149
	45.74,55.642 50.237,55.642 50.237,59.59 68.465,59.59 68.465,55.642 72.859,55.642 72.859,51.149 76.787,51.149 "/>
</svg>
